<?xml version="1.0" standalone="no"?>
<!DOCTYPE svg PUBLIC "-//W3C//DTD SVG 20010904//EN"
 "http://www.w3.org/TR/2001/REC-SVG-20010904/DTD/svg10.dtd">
<svg version="1.0" xmlns="http://www.w3.org/2000/svg"
 width="599.000000pt" height="599.000000pt" viewBox="0 0 599.000000 599.000000"
 preserveAspectRatio="xMidYMid meet">
<metadata>
Created by potrace 1.11, written by Peter Selinger 2001-2013
</metadata>
<g transform="translate(0.000000,599.000000) scale(0.100000,-0.100000)"
fill="#000000" stroke="none">
<path d="M0 2995 l0 -2995 2925 0 2925 0 0 23 c0 22 20 57 47 85 7 7 13 19 13
26 0 8 13 13 30 14 16 0 34 3 40 7 7 4 10 860 10 2604 l0 2597 -30 29 c-19 19
-30 39 -30 57 0 15 -5 28 -10 28 -33 0 20 173 57 187 10 4 13 41 13 169 l0
164 -2995 0 -2995 0 0 -2995z m2870 2682 c0 -23 59 -136 98 -190 67 -90 180
-175 320 -239 128 -58 130 -59 173 -96 42 -36 79 -98 79 -132 0 -15 -6 -20
-28 -20 -25 0 -30 6 -41 39 -15 52 -67 95 -140 115 -78 22 -797 24 -876 2 -76
-20 -122 -54 -148 -108 -22 -49 -47 -64 -47 -28 0 10 9 42 20 70 11 28 20 73
20 100 0 59 12 93 45 126 39 39 54 77 66 161 6 43 17 88 25 101 32 48 169 114
209 99 8 -4 15 -18 15 -34 0 -41 36 -163 65 -225 23 -48 95 -143 95 -125 0 4
-12 25 -26 46 -31 48 -73 168 -83 239 -8 57 3 72 14 20 15 -66 99 -228 112
-214 3 3 -5 26 -17 51 -26 54 -61 165 -52 165 4 0 18 -27 31 -61 29 -76 112
-201 152 -229 37 -27 37 -22 -2 26 -49 62 -130 237 -115 251 2 3 21 -28 41
-69 20 -40 52 -91 72 -113 35 -40 32 -21 -7 35 -39 57 -107 272 -81 255 6 -3
11 -12 11 -18z m816 -63 c178 -51 360 -128 519 -218 33 -19 78 -44 100 -56 46
-25 168 -113 205 -147 14 -13 28 -23 32 -23 4 0 21 -13 36 -30 16 -16 32 -30
35 -30 4 0 33 -26 66 -57 195 -190 242 -233 250 -228 6 3 12 1 16 -5 3 -5 1
-10 -6 -10 -10 0 -10 -3 -1 -12 10 -10 15 -10 23 2 8 12 9 10 4 -8 -4 -12 -3
-21 2 -20 17 6 54 -39 47 -58 -4 -13 -3 -15 4 -6 7 10 13 7 25 -12 10 -14 17
-30 17 -36 0 -23 31 -70 42 -64 7 5 9 2 6 -7 -19 -50 -18 -57 7 -77 34 -27 32
-35 -7 -27 -31 6 -32 5 -14 -10 11 -8 28 -15 37 -15 50 0 64 -90 23 -139 -54
-64 -154 -28 -154 56 0 42 23 83 46 83 8 0 14 5 14 10 0 18 -18 10 -47 -20
-24 -26 -29 -28 -34 -12 -6 14 -9 12 -18 -12 -9 -21 -9 -32 -1 -40 8 -8 9 -6
4 8 -5 13 -4 17 4 12 7 -4 12 -15 12 -24 0 -9 32 -80 70 -157 39 -77 70 -143
70 -148 0 -4 11 -30 25 -59 14 -28 25 -61 25 -72 1 -12 7 -32 15 -46 15 -27
20 -74 7 -66 -5 3 -14 31 -22 63 -7 32 -19 67 -26 78 -8 11 -14 28 -14 39 0
11 -6 27 -13 35 -8 9 -24 41 -37 71 -12 30 -26 57 -29 60 -4 3 -15 25 -25 49
-21 55 -124 211 -138 211 -6 0 -9 3 -5 6 3 3 -6 17 -20 30 -14 13 -22 24 -18
24 4 0 2 7 -5 15 -46 56 12 -67 86 -181 19 -29 56 -101 84 -160 28 -60 56
-118 62 -129 6 -11 33 -85 59 -166 49 -149 94 -353 105 -479 7 -70 19 -83 26
-25 3 26 7 30 31 27 15 -1 27 2 27 8 0 6 4 9 9 5 6 -3 15 3 21 12 8 13 13 14
16 6 6 -14 35 -18 33 -5 -3 18 2 30 16 36 12 4 14 0 9 -20 -8 -32 7 -44 49
-38 22 2 28 0 23 -11 -3 -9 1 -15 9 -15 8 0 16 -4 16 -10 2 -15 4 -22 17 -53
15 -35 16 -137 2 -137 -5 0 -10 -9 -10 -20 0 -11 4 -20 8 -20 5 0 9 -7 9 -15
0 -8 -4 -12 -9 -9 -4 3 -8 -9 -8 -25 0 -21 -5 -31 -15 -31 -8 0 -15 6 -16 13
0 9 -2 9 -6 -1 -2 -6 -8 -10 -12 -7 -5 2 -14 -7 -21 -20 -15 -28 -25 -30 -60
-11 -16 10 -30 11 -42 5 -14 -7 -20 -3 -32 18 -8 16 -15 21 -16 13 0 -8 -11 2
-24 24 -13 21 -26 34 -29 29 -3 -5 -7 -36 -8 -69 -2 -75 -52 -375 -79 -477
-24 -91 -49 -157 -59 -157 -16 0 -73 -135 -82 -194 -7 -43 -26 -90 -66 -161
-67 -120 -150 -248 -196 -302 -19 -22 -16 -63 5 -63 5 0 7 8 4 18 -4 10 4 6
19 -11 14 -15 25 -23 25 -17 0 7 5 6 14 -2 8 -7 11 -17 8 -22 -3 -5 0 -6 6 -2
6 3 17 -1 25 -9 9 -8 19 -15 24 -15 9 0 35 -77 38 -114 2 -29 -7 -44 -14 -23
-6 15 -8 14 -19 -4 -8 -12 -9 -18 -3 -14 6 3 11 -1 11 -9 0 -9 -5 -16 -11 -16
-5 0 -8 -4 -5 -9 7 -11 -30 -45 -41 -38 -5 3 -14 -3 -21 -13 -10 -17 -9 -18 6
-13 9 3 0 -7 -20 -21 -21 -15 -38 -31 -38 -36 0 -6 -11 -10 -24 -10 -13 0 -26
-4 -28 -9 -1 -4 -13 -12 -25 -15 -17 -5 -23 -3 -23 7 0 14 -54 42 -72 38 -8
-1 -11 20 -11 62 0 10 -5 16 -11 14 -6 -2 -20 -1 -31 3 -17 6 -16 8 11 14 31
7 58 42 80 103 9 25 8 30 -2 26 -7 -2 -14 4 -16 14 -2 14 -21 1 -84 -60 -45
-42 -86 -77 -91 -77 -6 0 -13 13 -16 28 -6 29 -40 52 -77 52 -47 0 -217 -130
-275 -211 -32 -43 -105 -167 -105 -177 0 -22 -256 -132 -307 -132 -28 0 -30
26 -6 96 29 89 127 206 244 293 60 44 89 51 110 25 11 -13 2 -25 -62 -86 -76
-73 -80 -95 -12 -59 67 35 109 82 144 161 15 34 -7 72 -49 84 -72 20 -232 -98
-334 -248 -54 -78 -104 -190 -113 -248 -7 -46 -9 -48 -49 -59 -108 -30 -187
-46 -191 -39 -3 4 12 20 33 35 94 70 220 229 238 301 3 13 15 24 27 26 20 3
57 52 47 61 -3 3 -48 7 -100 10 -53 3 -111 12 -132 21 -38 16 -78 10 -93 -13
-3 -6 -26 -11 -50 -11 -35 0 -49 -6 -70 -27 -29 -32 -31 -49 -9 -74 15 -17 15
-20 1 -34 -35 -34 -133 -204 -154 -265 l-22 -65 -67 -3 c-37 -2 -71 1 -75 5
-29 29 278 604 345 648 16 10 80 18 221 25 110 6 209 13 220 16 22 4 67 62 59
76 -3 4 -97 8 -210 8 -157 0 -204 3 -204 13 0 15 65 102 160 213 82 97 176
178 229 200 34 13 72 66 58 81 -9 9 -146 -49 -170 -71 -12 -12 -39 -42 -59
-66 -20 -25 -49 -58 -64 -75 -46 -51 -169 -208 -199 -253 -24 -37 -32 -42 -65
-42 -69 0 -100 -11 -115 -41 -21 -39 -19 -54 10 -67 34 -16 41 -53 18 -89 -68
-100 -83 -124 -110 -173 -62 -111 -162 -317 -175 -358 l-13 -42 -52 0 c-51 0
-192 16 -225 26 -26 8 -22 21 23 82 93 122 291 285 343 281 12 0 26 -1 33 0
12 1 63 68 63 83 0 14 -70 8 -103 -8 -36 -19 -196 -153 -238 -199 -45 -50 -46
-19 -1 43 53 71 96 152 82 152 -20 0 -93 -42 -116 -67 -13 -14 -24 -38 -24
-53 0 -31 -65 -167 -117 -246 l-34 -51 -45 8 c-25 5 -49 11 -54 14 -18 11 81
200 186 355 24 36 44 70 44 77 0 6 6 13 13 16 6 2 9 8 5 12 -4 4 -21 3 -37 -3
-21 -7 -42 -7 -67 0 -42 11 -93 4 -138 -20 -70 -39 -145 -95 -216 -164 -83
-80 -151 -128 -180 -128 -51 0 -322 164 -475 287 -85 68 -205 181 -205 193 0
21 196 153 315 212 129 65 242 98 333 98 101 0 155 -32 122 -73 -42 -51 -61
-79 -84 -122 -16 -27 -34 -57 -41 -65 -15 -17 -55 -130 -55 -155 0 -23 27 -30
58 -14 55 27 167 151 206 229 36 72 37 78 34 163 -3 80 -5 87 -22 83 -20 -5
-66 12 -66 25 0 4 8 14 18 21 10 7 32 33 50 57 26 36 32 55 32 94 0 42 -5 54
-33 82 -26 26 -48 36 -112 49 -140 30 -188 48 -205 78 -13 25 -13 29 3 45 28
28 179 24 228 -6 l37 -22 31 40 32 40 -23 21 c-56 52 -215 64 -295 23 -96 -50
-134 -210 -60 -257 32 -21 104 -43 167 -51 68 -9 99 -20 128 -47 32 -31 28
-56 -13 -74 -72 -30 -183 -13 -240 37 -29 25 -37 28 -53 18 -10 -7 -25 -27
-31 -46 -11 -30 -11 -37 6 -55 10 -12 31 -29 47 -39 27 -16 28 -19 10 -24 -90
-28 -306 -127 -332 -152 -7 -7 -17 -13 -21 -13 -4 0 -56 -34 -115 -75 l-107
-75 -32 34 c-18 19 -43 49 -57 67 -14 18 -30 37 -35 43 -6 6 -32 41 -58 78
-53 75 -64 131 -27 141 20 5 20 14 20 361 l0 356 -29 0 c-21 0 -31 -6 -37 -22
-5 -13 -11 -167 -14 -342 -3 -220 -8 -320 -16 -323 -14 -5 -123 216 -159 322
-15 44 -31 89 -35 100 -64 160 -120 500 -120 732 0 103 23 324 45 438 14 74
20 160 8 110 -3 -11 -8 -22 -12 -25 -17 -12 -52 -71 -47 -78 3 -5 -1 -9 -8 -9
-8 0 -12 5 -10 11 6 18 -12 37 -29 30 -9 -3 -14 -11 -11 -16 4 -6 10 -5 15 3
7 11 9 11 9 1 0 -18 -33 -29 -38 -13 -4 11 -6 11 -14 0 -7 -11 -9 -9 -5 6 3
17 -1 21 -27 23 -16 2 -34 8 -38 15 -5 8 -8 6 -8 -6 0 -10 -4 -15 -10 -12 -5
3 -12 -6 -16 -20 -3 -13 -11 -22 -16 -19 -7 4 -8 36 -4 85 5 60 3 79 -6 80
-10 0 -10 2 0 6 6 2 12 20 12 39 0 20 4 33 9 30 5 -4 7 2 4 12 -2 11 3 27 13
36 12 12 14 20 6 25 -7 4 -2 17 15 38 14 17 51 89 83 160 109 244 175 366 309
566 24 37 29 48 16 43 -15 -5 -16 -4 -5 9 7 9 15 13 18 10 9 -9 32 17 32 35 0
11 7 17 17 16 10 0 23 11 31 27 7 15 18 27 23 27 6 0 7 5 3 12 -4 6 -3 8 3 5
13 -8 36 17 25 27 -4 4 -2 6 4 4 6 -1 52 35 101 82 95 89 161 146 228 195 22
17 42 32 45 35 35 38 297 196 422 255 113 52 253 105 256 95 2 -5 -17 -35 -41
-67 -44 -59 -83 -121 -127 -206 -21 -40 -37 -54 -100 -89 -41 -23 -89 -52
-106 -65 -17 -12 -36 -23 -42 -23 -7 0 -12 -4 -12 -9 0 -5 -13 -14 -28 -20
-15 -6 -41 -23 -57 -37 -17 -14 -42 -32 -57 -40 -16 -8 -28 -18 -28 -22 0 -4
-12 -15 -27 -25 -42 -25 -168 -145 -168 -159 -1 -7 -6 -12 -13 -11 -7 2 -9 -4
-5 -13 4 -12 2 -15 -8 -12 -9 3 -21 -8 -31 -30 -10 -20 -16 -37 -15 -39 7 -6
192 178 189 188 -1 6 2 8 8 4 6 -4 34 13 63 37 119 101 380 269 394 254 3 -3
5 -47 4 -98 -1 -90 -3 -97 -51 -194 -62 -127 -83 -205 -82 -314 0 -47 1 -150
1 -230 1 -97 6 -167 17 -211 13 -54 14 -77 5 -118 -15 -69 -14 -157 2 -204 24
-67 33 -61 23 13 -10 73 1 145 30 200 12 23 13 16 14 -62 0 -53 10 -141 26
-220 30 -152 35 -302 14 -482 -14 -121 -9 -185 17 -263 l18 -52 0 107 c1 70 6
117 15 137 l14 30 3 -30 c7 -62 44 -204 79 -305 43 -125 50 -179 35 -250 -6
-29 -9 -55 -6 -58 2 -3 14 17 26 43 19 43 21 60 15 134 -3 48 -9 106 -12 131
-8 59 8 43 30 -30 10 -30 35 -102 57 -160 44 -120 48 -166 19 -240 l-20 -51
20 11 c26 14 65 75 80 126 7 21 15 129 20 239 9 234 14 253 115 435 104 185
109 203 109 355 -1 101 -6 158 -27 257 -16 74 -27 160 -27 204 l0 76 -55 60
c-62 66 -83 102 -100 168 -7 29 -19 48 -32 54 -45 20 -123 193 -123 270 0 35
21 66 45 66 7 0 21 -21 31 -47 20 -55 38 -81 30 -43 -3 14 -12 58 -21 99 -9
40 -19 109 -22 152 -6 74 -5 79 14 79 18 0 21 -8 26 -66 10 -134 94 -209 232
-209 84 1 132 22 192 88 51 55 76 103 97 187 16 66 42 100 75 100 31 0 51 -25
66 -83 20 -77 60 -161 98 -204 66 -76 190 -110 284 -79 86 29 136 99 149 210
7 54 8 56 37 56 l29 0 -4 -65 c-2 -36 -2 -65 0 -65 3 0 15 11 28 25 27 30 74
33 96 8 36 -40 32 -75 -22 -211 -57 -142 -84 -184 -121 -186 -22 -1 -25 -6
-32 -64 -9 -77 -56 -208 -96 -271 -56 -87 -154 -162 -275 -212 -33 -13 -52
-25 -42 -27 44 -9 198 68 264 131 17 17 32 29 32 26 0 -2 -9 -33 -20 -69 -11
-36 -20 -85 -19 -110 l0 -45 15 43 c8 23 28 64 44 90 16 26 39 64 50 85 11 20
25 37 31 37 31 0 -39 -308 -97 -428 -68 -143 -80 -241 -39 -322 29 -56 73 -94
145 -121 54 -20 120 -25 120 -9 0 6 -10 10 -22 10 -36 0 -83 34 -101 73 -39
82 -10 165 102 289 72 80 88 103 102 147 15 51 9 -86 -7 -156 -23 -99 -16
-223 16 -287 38 -76 75 -106 209 -171 76 -37 134 -72 151 -92 33 -38 44 -92
38 -192 -2 -38 0 -68 3 -65 4 2 13 36 19 76 12 68 10 162 -6 325 -7 70 1 116
18 111 7 -3 22 -24 35 -48 27 -52 31 -148 8 -250 -17 -79 -18 -115 -4 -197 11
-62 30 -92 21 -33 -7 48 16 155 65 305 48 148 57 224 41 345 -8 52 -7 54 7 28
28 -51 45 -143 55 -303 13 -212 25 -282 66 -389 30 -79 34 -99 34 -187 0 -54
-2 -99 -4 -99 -2 0 -24 12 -49 26 -99 55 -233 38 -311 -39 -69 -70 -90 -125
-91 -242 0 -92 2 -103 26 -140 34 -51 64 -85 75 -85 5 0 23 -7 39 -16 42 -24
150 -24 197 -1 20 10 54 33 74 52 20 19 38 35 40 35 2 0 4 -22 4 -50 0 -42 3
-50 18 -50 10 0 28 13 40 30 22 29 22 32 20 382 -3 340 -4 353 -22 356 -11 3
-25 -4 -33 -13 -12 -17 -13 -17 -20 1 -13 31 -9 358 6 517 24 251 -5 388 -116
556 -32 47 -92 122 -134 166 -138 144 -159 196 -228 545 -59 303 -103 463
-195 714 -20 54 -36 100 -36 102 0 8 23 4 53 -10 73 -33 110 -45 120 -39 5 3
7 2 4 -3 -3 -6 30 -27 74 -49 43 -21 79 -42 79 -47 0 -4 5 -8 12 -8 20 0 199
-120 292 -196 50 -41 133 -117 185 -169 52 -52 98 -92 104 -88 6 4 8 0 4 -10
-4 -12 -2 -14 10 -10 11 4 14 2 9 -5 -4 -7 -2 -12 3 -12 6 0 11 -7 11 -16 0
-8 4 -13 9 -10 5 4 11 0 14 -6 2 -7 8 -9 13 -5 5 5 -1 17 -15 28 -13 10 -20
19 -17 19 3 0 -6 13 -20 30 -15 16 -31 27 -35 24 -5 -3 -6 1 -4 9 15 37 -379
368 -532 447 -37 19 -70 38 -73 41 -7 9 -222 108 -282 129 -28 10 -41 23 -54
54 -19 43 -77 145 -119 209 -14 20 -21 37 -16 37 5 0 49 -12 97 -26z m-686
-481 c-14 -9 -31 -25 -38 -35 -10 -14 -27 -18 -73 -18 -56 0 -63 3 -93 35
l-33 35 131 0 c126 0 130 -1 106 -17z m-499 -33 c25 -14 25 -56 -1 -70 -18
-10 -60 1 -60 15 0 2 -3 10 -6 18 -5 15 20 47 37 47 6 0 19 -5 30 -10z m695 2
c21 -13 25 -49 9 -66 -20 -19 -18 -19 -50 -4 -15 7 -25 19 -25 33 0 36 36 57
66 37z m-512 -74 c22 -31 20 -75 -3 -90 -15 -9 -18 -19 -14 -39 6 -33 -19 -64
-59 -71 -58 -11 -85 50 -45 98 18 22 22 34 16 51 -20 55 71 99 105 51z m704
-11 c11 -23 11 -34 2 -58 -7 -16 -16 -29 -21 -29 -5 0 -6 -12 -4 -27 7 -36
-20 -67 -62 -76 -26 -5 -35 -2 -48 16 -22 31 -19 61 9 88 20 19 22 27 13 46
-7 17 -6 28 7 48 14 22 24 26 54 23 29 -2 40 -9 50 -31z m-2857 -10 c56 -30
85 -79 75 -129 -11 -59 -66 -108 -121 -108 -44 0 -101 36 -120 76 -16 34 -16
39 2 92 17 52 23 58 63 74 57 21 49 22 101 -5z m4771 -884 c23 -21 32 -67 17
-95 -23 -43 -37 -51 -85 -45 -53 6 -61 12 -73 54 -24 83 77 144 141 86z m-85
-365 c-3 -8 -6 -5 -6 6 -1 11 2 17 5 13 3 -3 4 -12 1 -19z m190 -54 c42 -41
30 -116 -21 -141 -41 -19 -70 -13 -114 25 -32 28 -32 29 -17 58 8 16 15 34 15
40 0 22 76 46 110 35 8 -3 21 -10 27 -17z m-163 -45 c-8 -16 -9 -12 -10 23 -1
37 0 40 9 21 6 -15 7 -31 1 -44z m-4781 -79 c-3 -12 -8 -19 -11 -16 -5 6 5 36
12 36 2 0 2 -9 -1 -20z m162 -15 c24 -31 26 -38 16 -68 -15 -44 -42 -68 -78
-69 -49 -2 -69 11 -93 60 -13 26 -26 51 -28 56 -3 5 0 6 7 2 6 -4 22 5 37 23
22 26 33 31 69 31 38 0 47 -4 70 -35z m4655 -29 c0 -3 -4 -8 -10 -11 -5 -3
-10 -1 -10 4 0 6 5 11 10 11 6 0 10 -2 10 -4z m7 -108 c-3 -7 -5 -2 -5 12 0
14 2 19 5 13 2 -7 2 -19 0 -25z m-4710 -200 c7 -8 16 -31 20 -51 5 -31 1 -40
-25 -67 -33 -32 -56 -37 -96 -18 -62 28 -69 96 -16 142 25 20 35 23 66 16 20
-5 43 -15 51 -22z m11 -317 c15 -13 22 -30 22 -55 0 -51 -14 -72 -53 -85 -87
-29 -156 71 -92 134 30 31 92 34 123 6z m4866 -33 c16 -23 21 -73 10 -103 -10
-26 -61 -47 -99 -39 -27 5 -38 14 -54 47 -19 37 -19 42 -4 71 21 41 30 46 85
46 37 0 50 -5 62 -22z m-90 -354 c9 -8 16 -16 16 -17 0 -1 -31 -2 -70 -2 -38
0 -70 2 -70 4 0 2 8 10 18 17 24 18 87 17 106 -2z m16 -84 c13 -9 13 -10 0 -9
-8 1 -26 5 -40 9 l-25 8 25 1 c14 0 32 -4 40 -9z m-4693 -33 c7 -5 18 -27 24
-49 8 -32 7 -44 -6 -64 -31 -47 -104 -53 -142 -12 -38 43 -13 131 41 141 26 5
67 -3 83 -16z m3682 -36 c55 -39 84 -97 85 -168 1 -74 -19 -107 -84 -140 -83
-43 -179 -25 -240 45 -44 49 -55 87 -48 168 4 45 11 61 35 85 51 51 186 57
252 10z m979 12 c2 -8 -5 -13 -20 -13 -34 0 -68 11 -68 22 0 14 83 5 88 -9z
m-150 -242 c20 -19 32 -39 32 -55 0 -32 -3 -32 -41 -4 -43 32 -65 68 -48 79
20 12 21 12 57 -20z m-4346 -73 c36 -47 20 -111 -31 -128 -68 -22 -121 9 -121
72 0 58 37 92 93 85 26 -4 47 -14 59 -29z m4328 -61 c0 -5 -13 1 -30 13 -39
27 -39 34 0 12 16 -9 30 -21 30 -25z m-158 -170 c25 -31 23 -86 -4 -114 -17
-18 -32 -23 -74 -23 -49 0 -52 2 -65 32 -15 37 -14 85 3 106 31 37 110 37 140
-1z m-3989 -39 c40 -54 -3 -138 -70 -138 -75 0 -111 93 -58 146 35 35 99 31
128 -8z m1110 -13 c10 -25 -11 -124 -32 -154 -26 -36 -98 -101 -112 -101 -18
0 -5 57 30 134 52 111 99 162 114 121z m-952 -185 c10 -6 19 -16 19 -23 0 -16
-101 -117 -117 -117 -18 0 -27 47 -17 89 7 29 16 38 44 48 44 15 47 15 71 3z
m28 -141 c-22 -14 -33 -10 -19 6 7 8 17 12 22 9 6 -4 5 -10 -3 -15z m3149 -52
c5 -25 -93 -116 -182 -170 -106 -64 -129 -77 -134 -72 -16 16 132 175 218 234
50 34 93 37 98 8z m-2935 -36 c36 -14 60 -70 46 -110 -16 -46 -61 -62 -126
-45 -44 12 -54 102 -15 137 31 27 58 32 95 18z m1042 -69 c6 -17 -12 -40 -135
-162 -119 -118 -126 -123 -164 -116 -58 11 -64 20 -41 63 29 55 174 199 222
221 48 21 109 18 118 -6z m1965 -14 c0 -18 -56 -134 -68 -142 -15 -9 -42 39
-42 74 0 41 39 80 80 80 17 0 30 -5 30 -12z m-916 -28 c50 -19 23 -93 -67
-184 -133 -134 -293 -215 -314 -160 -5 14 38 121 60 149 4 6 19 26 33 45 41
58 117 132 149 146 36 16 104 18 139 4z m976 -63 c0 -25 -35 -65 -47 -54 -7 8
28 77 39 77 5 0 8 -11 8 -23z m-2043 -19 c-9 -13 -37 -65 -63 -116 -31 -63
-50 -92 -59 -88 -8 3 -30 8 -49 12 -21 3 -36 12 -36 20 0 8 3 14 8 14 7 0 29
20 144 127 60 56 81 68 55 31z m-706 -24 c13 -12 19 -30 19 -58 -1 -57 -20
-78 -77 -83 -57 -6 -80 13 -90 70 -5 31 -1 40 26 68 28 27 37 31 68 26 19 -4
44 -14 54 -23z m2426 -54 c58 -35 53 -110 -9 -142 -31 -16 -40 -17 -64 -6 -48
21 -55 34 -52 85 3 44 6 50 38 65 44 22 48 22 87 -2z m-2184 -183 c-3 -23 0
-37 12 -47 14 -11 22 -10 61 8 55 27 64 27 64 3 0 -58 -92 -91 -142 -51 -30
23 -38 73 -17 111 15 28 29 14 22 -24z m1820 36 c-7 -2 -19 -2 -25 0 -7 3 -2
5 12 5 14 0 19 -2 13 -5z m52 -21 c-10 -10 -79 -34 -110 -38 -16 -2 -2 6 33
19 35 12 60 26 55 30 -4 5 1 5 10 1 10 -3 15 -9 12 -12z m36 -39 c3 -41 -4
-59 -28 -82 -22 -19 -34 -22 -67 -18 -36 5 -66 27 -66 49 0 5 12 13 28 19 15
5 45 18 67 29 50 24 65 25 66 3z m-1449 -50 c33 -37 40 -58 27 -90 -14 -36
-38 -52 -79 -52 -55 0 -74 20 -66 70 16 99 65 129 118 72z m1007 -7 c9 -11 9
-16 -1 -22 -9 -6 -5 -10 12 -14 63 -15 12 -120 -58 -120 -53 0 -82 31 -82 89
0 40 4 49 28 63 33 21 85 23 101 4z m-675 -45 c16 -17 14 -20 -27 -58 -75 -69
-92 -72 -110 -20 -8 22 16 72 40 86 29 17 78 13 97 -8z m362 -19 c21 -28 17
-95 -7 -115 -31 -27 -73 -32 -107 -11 -51 30 -57 92 -12 134 27 26 33 27 72
19 23 -6 47 -18 54 -27z m-380 -120 c-8 -9 -19 -13 -22 -9 -10 9 16 38 28 31
6 -4 4 -13 -6 -22z"/>
<path d="M4779 4562 c6 -12 16 -24 22 -28 8 -4 8 -1 0 14 -6 12 -16 24 -22 28
-8 4 -8 1 0 -14z"/>
<path d="M865 4550 c-3 -6 1 -7 9 -4 18 7 21 14 7 14 -6 0 -13 -4 -16 -10z"/>
<path d="M1125 4550 c3 -5 8 -10 11 -10 2 0 4 5 4 10 0 6 -5 10 -11 10 -5 0
-7 -4 -4 -10z"/>
<path d="M1096 4514 c-5 -14 -9 -14 -24 -3 -15 12 -15 12 -5 -1 9 -12 8 -19
-1 -32 -7 -10 -15 -15 -18 -13 -3 3 -11 -1 -18 -10 -7 -8 -18 -15 -25 -15 -7
0 -15 -12 -18 -27 -6 -31 -44 -53 -88 -53 -36 0 -75 33 -83 71 l-6 32 -20 -26
c-11 -14 -20 -32 -20 -40 0 -9 -4 -17 -9 -19 -7 -3 -81 -135 -81 -145 0 -2 13
3 29 13 41 24 96 12 116 -26 41 -80 -12 -151 -95 -126 -37 11 -48 23 -65 68
-9 26 -11 23 -35 -48 -27 -83 -24 -92 31 -88 18 1 32 -3 36 -11 2 -8 21 -23
40 -35 22 -13 33 -26 29 -35 -3 -9 0 -12 10 -8 10 3 14 -2 14 -18 0 -30 13
-14 29 36 20 64 149 322 209 420 91 149 94 155 84 155 -5 0 -13 -7 -16 -16z
m-459 -476 c-3 -8 -6 -5 -6 6 -1 11 2 17 5 13 3 -3 4 -12 1 -19z"/>
<path d="M995 4490 c3 -5 8 -10 11 -10 2 0 4 5 4 10 0 6 -5 10 -11 10 -5 0 -7
-4 -4 -10z"/>
<path d="M4920 4460 c6 -11 13 -20 16 -20 2 0 0 9 -6 20 -6 11 -13 20 -16 20
-2 0 0 -9 6 -20z"/>
<path d="M781 3874 c0 -11 3 -14 6 -6 3 7 2 16 -1 19 -3 4 -6 -2 -5 -13z"/>
<path d="M750 3809 c0 -5 5 -7 10 -4 6 3 10 8 10 11 0 2 -4 4 -10 4 -5 0 -10
-5 -10 -11z"/>
<path d="M746 3763 c-6 -14 -5 -15 5 -6 7 7 10 15 7 18 -3 3 -9 -2 -12 -12z"/>
<path d="M5250 3161 c0 -12 5 -21 10 -21 6 0 10 6 10 14 0 8 -4 18 -10 21 -5
3 -10 -3 -10 -14z"/>
<path d="M1367 2496 c-123 -46 -205 -182 -195 -324 8 -107 58 -182 148 -220
52 -22 156 -19 212 6 51 22 142 106 136 124 -10 29 -34 30 -72 4 -105 -71
-251 -53 -307 38 -10 17 -19 34 -19 39 0 4 89 7 198 7 l197 0 24 35 c23 34 23
39 13 102 -14 84 -50 137 -115 171 -59 30 -163 39 -220 18z m174 -121 c35 -23
79 -77 79 -97 0 -9 -354 -11 -362 -3 -13 13 8 59 39 90 38 37 68 45 152 40 36
-3 65 -12 92 -30z"/>
<path d="M2438 2496 c-62 -23 -89 -45 -109 -91 -30 -67 -33 -99 -14 -138 25
-53 97 -83 244 -102 38 -4 66 -20 85 -47 24 -34 20 -48 -19 -64 -75 -31 -195
-10 -252 45 -19 18 -26 20 -43 9 -11 -7 -20 -19 -20 -26 0 -7 -5 -21 -12 -32
-10 -16 -9 -23 11 -44 69 -73 218 -94 317 -43 69 35 114 101 114 167 0 85 -44
118 -198 146 -99 18 -155 46 -160 80 -5 36 24 49 112 49 67 0 88 -4 121 -23
l39 -24 28 34 c15 18 27 40 25 48 -8 49 -188 87 -269 56z"/>
<path d="M3015 2501 c-143 -37 -241 -197 -216 -352 21 -129 115 -211 242 -213
71 0 129 25 179 79 l25 27 5 -49 c4 -38 9 -49 25 -51 14 -2 26 8 38 29 15 27
17 61 17 280 l0 249 -25 0 c-18 0 -28 -7 -35 -25 -12 -31 -17 -31 -72 0 -48
26 -134 39 -183 26z m162 -137 c50 -40 75 -95 77 -166 1 -69 -20 -103 -84
-135 -89 -46 -206 -18 -258 60 -24 36 -27 50 -27 123 0 74 3 85 25 109 36 39
56 45 147 42 74 -2 85 -5 120 -33z"/>
<path d="M3617 2496 c-36 -13 -72 -38 -89 -61 -4 -5 -8 7 -8 28 0 34 -2 37
-28 37 -45 0 -51 -35 -54 -313 l-3 -247 22 0 c14 0 29 12 42 34 19 30 21 49
21 195 l0 161 28 30 c32 37 87 52 156 43 37 -4 57 -14 86 -42 50 -48 60 -98
54 -278 l-4 -143 22 0 c15 1 31 13 47 38 23 36 23 41 18 202 -3 91 -11 181
-17 200 -36 101 -177 157 -293 116z"/>
<path d="M4865 2506 c-5 -3 -22 -7 -37 -10 -15 -4 -43 -20 -63 -37 l-35 -31 0
36 c0 31 -3 36 -24 36 -49 0 -56 -37 -56 -312 0 -238 1 -248 19 -248 11 0 29
13 40 29 19 26 21 43 21 183 0 220 21 253 152 245 72 -5 88 4 117 61 11 20 9
23 -15 33 -31 11 -104 20 -119 15z"/>
<path d="M4720 1706 c-9 -11 -9 -19 0 -33 11 -17 11 -17 6 1 -4 11 0 24 11 32
10 7 13 14 7 14 -6 0 -17 -7 -24 -14z"/>
</g>
</svg>
