<?xml version="1.0" standalone="no"?>
<!DOCTYPE svg PUBLIC "-//W3C//DTD SVG 20010904//EN"
 "http://www.w3.org/TR/2001/REC-SVG-20010904/DTD/svg10.dtd">
<svg version="1.0" xmlns="http://www.w3.org/2000/svg"
 width="769.000000pt" height="769.000000pt" viewBox="0 0 769.000000 769.000000"
 preserveAspectRatio="xMidYMid meet">
<metadata>
Created by potrace 1.11, written by Peter Selinger 2001-2013
</metadata>
<g transform="translate(0.000000,769.000000) scale(0.100000,-0.100000)"
fill="#000000" stroke="none">
<path d="M0 3850 l0 -3840 3845 0 3845 0 0 3840 0 3840 -3845 0 -3845 0 0
-3840z m3932 2227 c37 -47 10 -112 -53 -126 -40 -9 -104 7 -104 26 0 6 -3 15
-7 19 -12 12 -9 38 8 79 l15 38 62 -7 c48 -5 66 -11 79 -29z m1999 -309 c28
-15 43 -33 53 -62 25 -70 27 -93 11 -110 -8 -8 -15 -19 -15 -23 0 -19 -56 -71
-90 -85 -70 -29 -190 23 -190 82 0 10 -5 22 -10 25 -6 4 -8 21 -5 38 4 18 7
39 9 47 16 91 146 139 237 88z m-2098 -161 c37 -48 107 -98 214 -151 95 -47
143 -91 143 -132 0 -35 -32 -30 -50 8 -8 18 -28 41 -43 52 -27 20 -41 21 -320
21 -325 0 -340 -3 -373 -68 -21 -40 -21 -40 -33 -33 -7 5 -3 25 10 58 11 28
18 57 15 65 -7 18 11 63 35 89 11 11 26 51 33 88 17 78 27 93 81 117 65 30 71
27 89 -47 17 -69 58 -158 76 -169 6 -4 0 15 -13 42 -23 45 -52 161 -43 170 2
3 12 -20 21 -49 16 -45 65 -135 65 -116 0 3 -11 30 -25 60 -41 87 -28 100 14
13 22 -44 52 -91 67 -105 l28 -25 -22 32 c-31 45 -72 134 -72 158 0 11 14 -8
30 -41 17 -34 38 -68 47 -75 13 -11 13 -6 -4 21 -22 37 -63 150 -62 172 0 7
15 -17 33 -54 18 -36 44 -82 59 -101z m443 118 c180 -47 440 -178 542 -272 14
-13 28 -23 32 -23 8 0 31 -21 141 -125 150 -143 211 -228 319 -450 69 -140
110 -258 136 -390 8 -38 19 -92 25 -118 17 -72 13 -368 -5 -447 -8 -36 -18
-93 -22 -127 -3 -35 -12 -67 -18 -72 -7 -6 -28 -6 -56 0 -24 6 -62 7 -85 3
-77 -13 -146 -118 -130 -197 10 -45 30 -73 77 -107 44 -32 110 -41 150 -19 11
6 22 8 25 6 7 -8 -52 -36 -94 -45 -22 -5 -42 -16 -48 -28 -89 -174 -259 -371
-433 -502 -79 -59 -112 -74 -112 -52 0 6 3 10 8 10 4 0 20 29 37 64 16 35 33
62 37 59 5 -2 8 3 8 12 0 9 8 30 17 46 9 15 14 31 10 35 -11 11 -37 -4 -46
-28 -19 -47 -24 -63 -23 -70 1 -5 -2 -8 -8 -8 -5 0 -10 -7 -10 -15 0 -8 -9
-24 -19 -34 -11 -11 -17 -22 -13 -25 3 -3 -1 -17 -8 -31 -11 -20 -11 -27 1
-42 12 -15 12 -16 -4 -10 -13 5 -17 3 -14 -5 2 -7 9 -12 15 -11 6 2 17 -7 23
-19 11 -20 12 -21 25 -4 13 18 45 19 51 1 2 -9 -19 -22 -64 -42 -7 -3 -26 9
-42 26 l-28 30 -99 -48 c-120 -59 -225 -101 -271 -108 -33 -6 -34 -5 -22 14
10 17 10 27 -1 52 -17 43 -28 39 -27 -11 0 -53 -7 -96 -18 -106 -4 -4 -5 -1 0
7 9 15 5 15 -180 -13 -55 -9 -157 -16 -227 -16 l-127 0 24 36 c14 20 25 50 25
65 0 16 3 29 8 29 12 0 31 70 18 70 -6 0 -3 5 7 11 9 5 17 15 17 21 0 6 23 58
50 116 58 120 63 165 6 52 -21 -41 -42 -82 -46 -90 -27 -46 -60 -124 -60 -141
0 -11 -7 -22 -15 -25 -8 -4 -15 -12 -15 -20 0 -8 -4 -14 -10 -14 -5 0 -20 -12
-33 -26 -13 -14 -31 -26 -39 -28 -8 -1 -28 -10 -44 -20 -29 -19 -52 -18 -171
11 -27 6 -32 -17 -8 -37 8 -7 12 -16 9 -21 -3 -6 23 -7 63 -3 75 6 149 39 195
86 14 16 29 28 32 28 11 0 5 -35 -9 -54 -8 -11 -15 -29 -16 -40 0 -12 -3 -15
-6 -8 -8 21 -48 13 -119 -24 -75 -39 -109 -41 -158 -9 -18 12 -26 26 -26 47 0
39 -13 50 -85 73 -33 10 -67 22 -75 26 -8 4 -59 28 -113 52 -88 40 -101 44
-135 35 -60 -17 -199 -21 -250 -8 -133 32 -209 128 -172 215 7 15 9 10 9 -23
1 -26 5 -41 11 -37 6 3 14 -4 20 -17 17 -40 46 -66 90 -79 35 -11 39 -14 24
-21 -14 -6 -10 -7 11 -4 17 3 62 1 100 -4 49 -6 72 -5 77 3 5 8 11 7 22 -2 13
-11 18 -10 31 3 12 11 22 13 33 7 11 -6 28 -3 54 10 20 10 48 19 61 19 13 0
32 7 43 15 19 14 19 14 -3 15 -12 0 -25 -4 -28 -10 -3 -5 -28 -12 -55 -16 -27
-4 -47 -10 -44 -15 19 -32 -98 17 -157 64 -14 12 -39 31 -54 42 -16 11 -61 51
-102 89 l-73 68 23 25 c63 70 135 136 162 149 16 8 21 12 11 9 -19 -6 -19 -5
-1 15 18 20 41 28 30 10 -3 -6 1 -7 10 -4 9 4 13 9 10 12 -9 10 179 112 207
112 10 0 18 4 18 9 0 5 24 12 53 17 44 7 47 8 20 12 -61 6 -256 -86 -382 -182
-62 -47 -161 -143 -161 -157 0 -60 -219 236 -287 387 l-28 63 -63 1 c-46 0
-63 3 -60 13 3 8 41 13 134 15 l130 3 27 -61 c20 -42 33 -60 47 -60 28 0 28
18 -1 79 -15 31 -41 85 -57 121 -16 36 -39 85 -50 110 -11 25 -32 71 -46 103
-23 52 -28 58 -52 55 -22 -2 -31 -15 -57 -75 -19 -44 -34 -68 -38 -60 -4 6
-18 68 -31 137 -42 226 -26 548 37 750 71 228 185 441 328 615 90 109 288 274
427 354 30 18 62 36 70 41 48 30 260 114 260 104 0 -3 -25 -43 -55 -89 -30
-45 -64 -103 -76 -128 -13 -25 -27 -43 -32 -40 -6 4 -7 1 -2 -7 4 -7 7 -44 6
-83 -2 -55 -8 -82 -31 -126 -16 -31 -34 -76 -40 -101 -15 -55 -14 -317 1 -376
8 -30 8 -57 0 -95 -9 -42 -8 -64 2 -99 l14 -45 0 60 c1 33 8 76 16 95 l15 35
0 -60 c0 -33 7 -98 17 -145 15 -71 16 -114 11 -255 -3 -97 -2 -183 3 -200 9
-28 9 -26 11 20 0 28 7 64 14 80 l13 30 5 -55 c4 -30 21 -97 38 -147 25 -73
31 -105 28 -152 -2 -40 0 -57 7 -50 6 6 9 56 8 116 -1 58 0 104 1 102 2 -2 22
-60 45 -128 42 -122 42 -124 27 -170 l-15 -46 24 28 c34 39 45 88 45 204 0
122 18 188 83 300 74 129 82 191 47 371 -11 56 -20 122 -20 146 0 31 -6 48
-21 62 -26 23 -79 113 -79 134 0 8 -9 21 -20 28 -37 23 -88 152 -75 192 10 30
34 24 51 -12 12 -26 14 -28 10 -8 -18 89 -28 171 -22 185 10 26 23 9 28 -38 9
-80 63 -127 145 -127 80 0 151 62 180 160 9 30 20 59 24 64 4 4 -7 21 -24 37
l-32 28 87 1 87 0 -25 -25 c-14 -14 -30 -25 -37 -25 -9 0 -9 -2 -1 -8 6 -4 19
-32 27 -63 32 -110 98 -169 189 -169 79 0 130 49 144 139 5 32 11 41 26 41 17
0 20 -6 17 -44 l-4 -44 24 19 c29 23 35 23 55 3 29 -29 21 -70 -41 -201 -16
-36 -30 -53 -43 -53 -14 0 -20 -11 -25 -50 -9 -67 -64 -177 -111 -222 -22 -20
-66 -50 -99 -68 -33 -17 -52 -29 -42 -26 10 3 25 6 32 6 7 0 43 20 79 44 36
24 66 43 66 43 0 -1 -7 -24 -15 -51 -23 -77 -18 -84 15 -20 17 32 40 70 51 84
l21 25 -7 -55 c-9 -81 -33 -166 -68 -245 -38 -88 -43 -169 -11 -211 23 -32 74
-60 124 -68 l35 -7 -36 20 c-78 43 -72 120 17 222 31 35 60 75 65 88 19 48 21
10 4 -87 -27 -165 1 -226 139 -293 109 -54 118 -64 126 -146 l6 -68 8 66 c5
41 4 93 -4 140 -7 47 -8 83 -2 98 l9 25 19 -29 c21 -32 23 -83 10 -215 -5 -47
-4 -84 2 -100 10 -22 11 -20 11 22 1 25 17 97 37 160 31 98 35 123 31 185 -2
40 -1 70 3 68 15 -9 30 -97 40 -227 9 -128 20 -183 53 -258 13 -30 21 -100 18
-147 -1 -8 -17 -4 -47 12 -54 29 -90 31 -141 10 -50 -21 -72 -42 -93 -88 -29
-63 -10 -147 45 -202 40 -41 153 -44 203 -5 l27 22 8 -32 c7 -26 10 -30 22
-20 12 10 15 53 15 236 0 224 -4 250 -35 224 -21 -18 -29 43 -21 169 3 58 9
151 12 206 11 170 -27 269 -158 411 -99 107 -99 108 -154 374 -38 184 -72 307
-116 423 -24 63 -27 81 -17 93 10 12 9 13 -3 9 -10 -4 -21 10 -38 47 -12 29
-43 81 -66 115 -48 68 -52 78 -26 68 9 -3 40 -12 68 -20z m-736 -381 c0 -20
-34 -36 -48 -22 -17 17 -15 36 5 47 20 11 43 -3 43 -25z m444 17 c11 -17 -6
-41 -29 -41 -24 0 -35 16 -27 38 5 14 48 16 56 3z m-1694 -36 c38 -34 66 -115
40 -115 -5 0 -10 -6 -10 -14 0 -23 -59 -66 -88 -65 -33 1 -81 28 -96 54 -6 10
-17 25 -24 33 -10 11 -10 17 -1 28 6 8 8 14 3 14 -5 0 -1 5 8 11 9 5 15 16 12
23 -3 8 7 24 23 36 22 17 37 21 71 17 24 -2 52 -13 62 -22z m1355 -9 c16 -23
11 -56 -7 -56 -6 0 -7 -7 -4 -16 7 -19 -20 -54 -41 -54 -7 0 -16 -7 -19 -15
-8 -19 -40 -20 -47 -1 -3 8 1 20 9 26 8 7 14 20 14 30 0 10 6 23 14 30 8 6 12
18 10 25 -8 21 14 55 36 55 11 0 26 -11 35 -24z m443 12 c15 -15 16 -68 1 -68
-6 0 -8 -7 -5 -16 8 -21 -20 -54 -46 -54 -10 0 -18 -6 -18 -14 0 -23 -17 -28
-35 -9 -15 14 -15 18 -3 27 14 10 18 21 34 91 12 53 44 71 72 43z m37 -58 c3
-5 1 -10 -4 -10 -6 0 -11 5 -11 10 0 6 2 10 4 10 3 0 8 -4 11 -10z m-441 -30
c-6 -6 -10 -3 -10 10 0 13 4 16 10 10 7 -7 7 -13 0 -20z m-1319 -1560 c20 -47
43 -100 51 -117 l14 -33 -115 0 -114 0 18 43 c11 23 31 69 46 102 15 33 31 71
36 84 13 32 21 22 64 -79z m3082 -12 c-3 -8 -6 -5 -6 6 -1 11 2 17 5 13 3 -3
4 -12 1 -19z m-697 -33 c53 -51 52 -147 -3 -198 -29 -27 -36 -29 -91 -25 -50
4 -63 9 -86 35 -56 62 -45 161 22 203 47 30 118 23 158 -15z m656 2 c32 -29
37 -40 40 -88 l3 -54 -16 53 c-9 29 -20 51 -26 49 -5 -1 -27 -42 -48 -91 -20
-48 -39 -90 -41 -92 -2 -2 -20 1 -40 6 -52 15 -71 42 -76 108 -4 52 -1 61 24
91 32 39 55 50 107 50 29 1 45 -6 73 -32z m55 -261 c5 -6 9 -14 9 -18 0 -10
-30 -11 -31 0 0 4 -2 16 -4 26 -2 11 -1 25 3 30 4 6 8 2 10 -9 2 -11 8 -24 13
-29z m-3351 -17 c0 -5 -7 -9 -15 -9 -15 0 -20 12 -9 23 8 8 24 -1 24 -14z
m-600 -146 c14 3 17 0 13 -12 -5 -13 -3 -14 8 -3 24 22 30 13 14 -24 -8 -20
-15 -38 -15 -40 0 -2 23 -18 50 -35 32 -20 50 -38 50 -50 0 -10 4 -19 10 -19
5 0 20 -18 32 -40 24 -41 32 -47 43 -30 3 6 15 10 26 10 17 0 24 -16 20 -43 0
-4 5 -6 11 -5 8 2 12 -5 10 -18 -2 -12 4 -24 13 -27 23 -9 18 -22 -12 -36 -27
-12 -27 -13 -9 -27 17 -12 18 -17 6 -41 -7 -16 -13 -31 -12 -34 1 -4 -16 2
-38 12 -49 24 -49 24 -42 -3 3 -14 1 -19 -6 -14 -10 6 -36 -28 -37 -49 0 -5
-10 -14 -22 -20 -13 -5 -23 -15 -23 -20 0 -12 -67 -41 -87 -39 -20 2 -15 -12
12 -42 32 -35 31 -41 -5 -39 -21 1 -31 -4 -36 -17 -7 -23 -59 -25 -68 -2 -3 8
-11 12 -16 9 -6 -4 -17 -2 -24 5 -8 6 -25 8 -39 5 -23 -6 -25 -4 -20 16 4 13
15 31 26 40 19 15 16 46 -2 34 -13 -8 -70 25 -82 47 -8 15 -17 18 -37 13 -21
-5 -23 -4 -14 8 9 10 9 20 -1 40 -6 15 -15 27 -19 27 -5 0 -8 9 -8 21 l0 20
-26 -20 c-32 -25 -63 -13 -65 24 -1 14 -2 31 -3 38 0 6 -11 13 -23 15 -28 4
-31 22 -4 22 15 0 20 10 25 45 4 25 4 49 1 55 -9 14 25 0 54 -22 33 -25 42
-23 36 10 -3 20 3 35 24 60 16 17 34 32 40 32 7 0 10 4 7 9 -7 10 19 34 41 37
7 1 20 8 28 14 12 10 12 17 1 45 -13 31 -9 58 10 54 5 -1 33 -1 63 0 43 1 52
4 47 16 -5 13 -1 13 25 -1 17 -9 39 -14 49 -11z m1093 -270 c-7 -3 -13 -11
-13 -19 0 -8 -4 -14 -10 -14 -5 0 -10 7 -10 15 0 8 5 15 10 15 6 0 10 8 10 17
0 14 2 15 13 4 10 -11 10 -14 0 -18z m2316 -179 c-17 -22 -89 -74 -101 -74
-17 0 -7 17 19 31 15 8 40 26 57 41 32 29 48 30 25 2z m-1219 -334 c-7 -4 -9
-13 -6 -19 4 -6 2 -11 -3 -11 -6 0 -11 -21 -11 -50 0 -27 5 -50 10 -50 6 0 8
-11 4 -25 -5 -19 -2 -25 9 -25 9 0 22 -8 29 -18 23 -33 60 -45 128 -44 36 1
67 7 68 12 2 6 12 10 22 10 10 0 21 7 24 16 3 8 10 12 16 9 5 -3 10 -1 10 4 0
6 5 11 11 11 7 0 20 9 30 21 10 11 22 18 26 16 5 -3 18 8 28 24 19 28 35 38
35 21 0 -23 -185 -160 -237 -176 -116 -36 -212 14 -227 118 -10 62 2 153 22
173 12 12 17 12 20 3 3 -7 -1 -16 -8 -20z m524 15 c-4 -8 -10 -15 -15 -15 -4
0 -6 7 -3 15 4 8 10 15 15 15 4 0 6 -7 3 -15z m-40 -50 c-9 -14 -20 -22 -25
-19 -5 3 1 14 13 24 30 25 32 25 12 -5z m-34 -35 c0 -5 -5 -10 -11 -10 -5 0
-7 5 -4 10 3 6 8 10 11 10 2 0 4 -4 4 -10z m1690 -17 c0 -8 13 -13 33 -13 24
0 28 -3 17 -10 -8 -5 -31 -10 -51 -10 -28 0 -38 5 -42 19 -3 11 -3 22 0 25 10
10 43 1 43 -11z m-16 -60 c4 -4 22 -6 39 -5 23 2 39 -3 51 -17 13 -14 26 -19
42 -15 19 5 24 2 24 -13 0 -10 9 -24 20 -31 11 -7 20 -18 20 -26 0 -7 9 -25
21 -40 12 -16 19 -35 16 -47 -3 -12 1 -23 14 -30 11 -5 17 -14 14 -20 -4 -5
-10 -7 -15 -4 -5 3 -11 1 -15 -5 -3 -5 2 -10 12 -10 11 0 14 -3 7 -8 -19 -13
-54 -79 -54 -102 0 -15 -4 -20 -15 -16 -9 3 -19 -3 -25 -14 -6 -11 -16 -17
-24 -14 -7 3 -16 -2 -19 -10 -4 -9 -13 -13 -22 -10 -8 3 -17 0 -20 -8 -4 -10
-16 -13 -35 -10 -17 2 -30 0 -30 -6 0 -5 20 -13 44 -16 48 -7 68 -31 35 -39
-12 -3 -29 -4 -40 -2 -10 2 -19 -1 -19 -6 0 -6 -4 -8 -9 -5 -5 4 -11 0 -14 -6
-3 -9 -12 -6 -27 10 -16 18 -19 27 -11 35 16 16 14 37 -4 31 -9 -4 -15 0 -15
8 0 8 -12 15 -30 16 -16 1 -41 13 -54 27 -14 14 -29 25 -35 25 -12 0 -37 67
-40 113 l-2 22 -9 -22 c-5 -13 -15 -23 -21 -23 -7 0 -18 -8 -26 -17 -12 -16
-13 -15 -7 10 5 21 3 27 -11 27 -9 0 -13 5 -9 11 3 6 0 15 -7 20 -12 8 -12 10
0 18 8 5 10 14 6 21 -4 7 -2 16 4 20 7 4 13 16 14 27 1 17 4 19 20 9 11 -6 25
-24 33 -41 11 -25 13 -26 14 -9 0 12 11 46 24 75 20 45 32 58 75 82 29 15 56
25 60 22 5 -2 14 2 21 10 14 17 23 19 34 8z m309 -215 c7 -23 1 -38 -14 -38
-5 0 -9 14 -9 30 0 35 15 40 23 8z"/>
<path d="M4420 5470 c8 -5 20 -10 25 -10 6 0 3 5 -5 10 -8 5 -19 10 -25 10 -5
0 -3 -5 5 -10z"/>
<path d="M3110 5420 c-9 -6 -10 -10 -3 -10 6 0 15 5 18 10 8 12 4 12 -15 0z"/>
<path d="M4560 5396 c0 -2 7 -7 16 -10 8 -3 12 -2 9 4 -6 10 -25 14 -25 6z"/>
<path d="M3039 5373 c-13 -17 -13 -17 6 -3 11 8 22 16 24 17 2 2 0 3 -6 3 -6
0 -17 -8 -24 -17z"/>
<path d="M4650 5340 c14 -11 34 -25 45 -31 14 -7 12 -4 -5 11 -14 11 -34 25
-45 31 -14 7 -12 4 5 -11z"/>
<path d="M2900 5280 c-9 -6 -10 -10 -3 -10 6 0 15 5 18 10 8 12 4 12 -15 0z"/>
<path d="M4753 5260 c19 -16 38 -30 41 -30 4 0 -9 14 -27 30 -19 17 -38 30
-41 30 -4 0 9 -13 27 -30z"/>
<path d="M2840 5229 c0 -5 5 -7 10 -4 6 3 10 8 10 11 0 2 -4 4 -10 4 -5 0 -10
-5 -10 -11z"/>
<path d="M2362 4330 c0 -14 2 -19 5 -12 2 6 2 18 0 25 -3 6 -5 1 -5 -13z"/>
<path d="M2587 3834 c-4 -4 -7 -108 -7 -231 0 -217 1 -223 20 -223 20 0 20 5
18 227 -3 214 -8 250 -31 227z"/>
<path d="M2780 3688 c-121 -62 -131 -219 -18 -292 26 -17 151 -39 143 -26 -2
4 11 12 30 18 40 15 62 39 49 52 -6 6 -24 3 -49 -10 -23 -12 -59 -20 -86 -20
-40 0 -53 5 -83 34 -20 18 -36 43 -36 55 0 20 4 21 140 21 l140 0 0 44 c0 111
-124 179 -230 124z m136 -33 c24 -10 39 -25 50 -51 8 -20 13 -38 11 -41 -8 -7
-247 -7 -247 0 0 4 0 13 0 20 0 8 8 23 18 34 48 54 101 66 168 38z"/>
<path d="M3152 3699 c-40 -12 -75 -63 -67 -99 9 -39 36 -55 123 -74 89 -19
105 -31 98 -72 -7 -36 -21 -44 -78 -44 -54 0 -96 14 -113 37 -7 9 -17 13 -23
9 -21 -13 -13 -36 21 -56 109 -68 237 -28 237 73 0 41 -30 63 -111 82 -115 25
-140 49 -99 93 23 24 87 30 134 12 29 -11 36 -33 9 -24 -15 5 -15 4 -3 -5 16
-11 50 12 50 34 0 30 -118 53 -178 34z"/>
<path d="M3480 3697 c-19 -7 -44 -26 -56 -45 -19 -27 -20 -37 -11 -61 13 -35
36 -47 130 -67 78 -16 97 -27 97 -55 0 -60 -114 -82 -183 -35 -30 21 -38 22
-47 11 -14 -16 -2 -33 40 -55 28 -15 161 -30 154 -18 -3 4 1 8 9 8 21 0 56 42
63 76 9 47 -24 80 -94 94 -93 20 -122 31 -132 51 -9 15 -6 24 14 44 30 30 99
34 148 9 36 -19 63 -4 38 20 -36 33 -110 43 -170 23z"/>
<path d="M3853 3700 c-124 -29 -173 -189 -84 -275 17 -15 29 -31 27 -34 -5 -8
36 -14 106 -15 47 -1 61 3 82 23 29 27 31 27 40 -11 4 -19 2 -28 -5 -28 -7 0
-9 -3 -6 -7 4 -3 16 2 27 12 18 17 20 31 20 177 0 151 -1 158 -20 158 -13 0
-20 -7 -20 -20 0 -11 -1 -20 -2 -20 -2 0 -25 11 -52 25 -52 26 -61 28 -113 15z
m121 -55 c52 -34 59 -148 12 -202 -18 -21 -34 -27 -79 -31 -50 -4 -61 -1 -91
22 -70 53 -72 140 -4 201 38 35 44 37 89 32 26 -3 59 -13 73 -22z"/>
<path d="M4234 3696 c-18 -8 -35 -19 -38 -25 -11 -18 -26 -13 -26 9 0 25 -30
27 -31 3 -2 -36 3 -308 5 -311 2 -1 9 0 17 3 11 4 14 31 15 116 2 106 3 112
29 139 16 16 32 27 37 24 4 -3 8 0 8 5 0 12 32 14 79 5 53 -11 65 -42 71 -173
4 -94 8 -116 20 -116 13 0 15 20 15 120 0 130 -8 157 -58 190 -34 22 -106 28
-143 11z"/>
<path d="M5025 3703 c-11 -3 -32 -14 -47 -25 -28 -19 -28 -19 -28 1 0 19 -28
31 -32 14 -4 -22 -6 -291 -2 -305 3 -10 12 -18 20 -18 11 0 14 21 14 106 0 60
5 115 11 127 17 30 52 57 67 52 8 -3 10 0 6 7 -5 8 5 9 38 5 35 -5 47 -3 52 8
3 8 2 16 -2 18 -14 8 -78 14 -97 10z"/>
<path d="M4295 3465 c-31 -14 -72 -54 -140 -140 -22 -27 -42 -52 -45 -55 -3
-3 -21 -28 -40 -57 -32 -48 -38 -52 -79 -55 -27 -2 -46 -8 -49 -17 -3 -10 0
-12 12 -8 11 5 15 3 10 -5 -5 -8 -2 -9 9 -5 10 4 17 1 17 -6 0 -18 -24 -67
-32 -67 -5 0 -8 -6 -8 -13 0 -8 -11 -27 -25 -43 -27 -31 -29 -37 -18 -48 8 -7
72 92 73 112 0 7 3 11 8 9 9 -4 52 40 45 47 -11 11 48 25 99 25 29 0 87 4 128
9 74 9 74 9 -56 10 -72 1 -133 5 -137 8 -6 6 58 96 98 139 11 12 38 41 60 66
22 24 56 52 75 61 19 10 28 18 21 18 -20 0 -2 17 24 23 l20 5 -20 0 c-11 0
-33 -6 -50 -13z m-280 -333 c-3 -3 -11 0 -18 7 -9 10 -8 11 6 5 10 -3 15 -9
12 -12z"/>
<path d="M5205 3380 c-3 -5 -1 -10 4 -10 6 0 11 5 11 10 0 6 -2 10 -4 10 -3 0
-8 -4 -11 -10z"/>
<path d="M4390 3360 c0 -5 5 -10 11 -10 5 0 7 5 4 10 -3 6 -8 10 -11 10 -2 0
-4 -4 -4 -10z"/>
<path d="M3259 3353 c19 -4 21 -7 10 -14 -11 -7 -9 -9 9 -9 28 0 28 -7 -4 -53
-14 -21 -24 -41 -21 -43 2 -3 14 10 25 28 22 35 30 38 42 17 10 -15 1 -41 -11
-33 -5 3 -9 -2 -9 -10 0 -20 29 -21 36 -1 4 8 3 35 0 58 -6 37 -11 45 -40 55
-18 7 -39 11 -47 11 -8 -1 -3 -4 10 -6z"/>
<path d="M3300 3191 c0 -10 -21 -42 -46 -70 -25 -28 -41 -51 -36 -51 13 0 70
66 95 109 16 27 16 31 3 31 -9 0 -16 -8 -16 -19z"/>
<path d="M3192 3140 c-27 -52 -29 -59 -12 -50 11 6 20 18 20 28 0 9 7 30 15
46 9 16 14 31 12 33 -3 2 -18 -24 -35 -57z"/>
<path d="M4846 3081 c-28 -29 -34 -51 -13 -51 16 1 51 31 59 52 11 28 -18 28
-46 -1z"/>
<path d="M4461 3059 c-72 -29 -180 -160 -214 -261 -13 -41 -14 -48 -1 -48 8 0
14 10 14 26 0 33 49 120 89 158 17 16 28 32 26 36 -3 5 2 11 11 14 10 4 13 2
8 -7 -5 -8 -2 -7 9 2 9 7 17 20 17 28 0 8 5 11 12 7 6 -4 8 -3 4 4 -3 6 -2 13
4 17 5 3 10 2 10 -4 0 -6 7 -8 16 -4 13 5 13 7 2 14 -8 6 -2 9 21 9 31 0 33
-2 26 -27 -3 -16 -16 -38 -27 -50 -12 -13 -19 -25 -16 -28 9 -9 68 67 68 87 0
9 -9 22 -19 28 -23 12 -28 12 -60 -1z"/>
<path d="M4675 3052 c-17 -9 -46 -28 -64 -42 -38 -29 -132 -162 -134 -191 -1
-10 -4 -19 -8 -19 -4 0 -6 -11 -6 -25 0 -14 3 -25 8 -25 5 0 9 10 9 23 1 31
32 97 63 130 14 15 24 27 21 27 -2 0 10 12 27 28 17 15 44 39 60 55 16 15 42
30 59 33 26 6 30 4 30 -17 0 -13 -16 -39 -37 -61 -47 -48 -36 -49 17 -2 41 37
51 69 28 92 -16 16 -37 15 -73 -6z"/>
<path d="M3165 3050 c-3 -5 -1 -10 4 -10 6 0 11 5 11 10 0 6 -2 10 -4 10 -3 0
-8 -4 -11 -10z"/>
<path d="M3471 2987 l-36 -18 35 7 c39 7 37 7 68 5 24 -1 31 -21 7 -21 -9 0
-19 -10 -24 -22 -5 -13 -37 -50 -70 -83 -34 -33 -61 -63 -61 -68 0 -4 30 21
67 57 37 36 69 63 71 62 2 -2 -6 -19 -17 -37 -43 -71 -91 -173 -91 -194 0 -11
-4 -25 -9 -30 -4 -6 -11 -26 -14 -45 -6 -35 -6 -35 8 -10 8 14 14 32 15 41 0
9 7 22 15 29 8 7 15 25 15 40 0 31 76 190 91 190 5 0 9 5 9 11 0 6 14 31 30
56 17 24 30 45 30 46 0 11 -111 -2 -139 -16z"/>
<path d="M4096 2975 c-11 -8 -32 -15 -48 -15 -32 0 -34 -5 -11 -28 16 -16 15
-17 -4 -20 -15 -2 -19 -9 -16 -21 3 -10 -2 -21 -10 -24 -9 -3 -33 -36 -56 -74
-29 -51 -38 -75 -34 -95 3 -16 9 -28 13 -28 5 0 6 8 3 19 -8 31 42 123 98 180
20 20 39 44 42 54 4 9 14 17 22 17 9 0 13 5 9 11 -5 8 6 9 37 4 77 -12 81 -14
74 -43 -13 -55 -38 -93 -96 -147 -33 -30 -56 -55 -51 -55 5 0 36 26 69 58 59
55 115 144 106 169 -2 6 8 13 24 16 22 3 19 4 -12 6 -39 1 -94 12 -125 25 -8
3 -24 -1 -34 -9z"/>
<path d="M3840 2963 c0 -14 -2 -15 -9 -4 -7 11 -13 10 -36 -5 -18 -12 -23 -20
-14 -23 7 -2 15 1 17 8 5 14 32 15 32 1 0 -5 9 -2 19 7 11 9 18 20 15 25 -9
14 -24 9 -24 -9z"/>
<path d="M3397 2944 c-15 -14 -27 -22 -27 -19 0 3 -18 -14 -40 -37 -22 -24
-40 -45 -40 -48 0 -3 -25 -16 -55 -30 -60 -28 -72 -43 -25 -33 19 3 30 1 30
-6 0 -6 -4 -11 -10 -11 -5 0 -10 -7 -10 -15 0 -8 -4 -15 -10 -15 -5 0 0 -11
12 -25 26 -30 34 -31 41 -5 3 11 0 20 -6 20 -6 0 -7 3 -4 6 4 4 13 2 20 -5 11
-8 21 -8 41 2 26 14 25 27 -1 27 -8 0 -11 -4 -8 -10 3 -5 0 -10 -8 -10 -15 0
-27 20 -27 47 0 15 61 96 95 125 34 30 40 34 59 45 10 6 14 13 9 16 -5 3 -21
-5 -36 -19z"/>
<path d="M3658 2935 c-15 -14 -30 -38 -34 -53 -3 -15 -8 -34 -10 -42 -3 -8 -5
-17 -4 -19 1 -2 -2 -7 -8 -10 -5 -3 -22 -28 -37 -56 -16 -27 -36 -55 -44 -61
-8 -7 -10 -13 -4 -17 5 -4 23 7 38 23 16 17 23 30 16 30 -9 0 -9 3 1 14 7 8
15 14 18 13 3 0 40 34 83 76 42 43 82 77 89 77 6 0 8 3 5 7 -8 7 -83 -50 -110
-84 -19 -24 -37 -30 -37 -13 0 6 14 29 30 52 17 22 30 47 30 55 0 7 5 13 10
13 6 0 10 5 10 10 0 16 -14 12 -42 -15z"/>
<path d="M3360 2770 c-8 -5 -12 -12 -9 -15 4 -3 12 1 19 10 14 17 11 19 -10 5z"/>
<path d="M4657 2736 c-4 -10 -1 -13 8 -9 8 3 12 9 9 14 -7 12 -11 11 -17 -5z"/>
<path d="M4250 2735 c0 -3 9 -14 20 -25 13 -13 32 -20 58 -19 l37 1 -40 11
c-22 5 -46 16 -53 24 -14 14 -22 17 -22 8z"/>
<path d="M4468 2733 c7 -3 16 -2 19 1 4 3 -2 6 -13 5 -11 0 -14 -3 -6 -6z"/>
<path d="M4388 2723 c6 -2 18 -2 25 0 6 3 1 5 -13 5 -14 0 -19 -2 -12 -5z"/>
<path d="M4620 2720 c0 -5 5 -10 10 -10 6 0 10 5 10 10 0 6 -4 10 -10 10 -5 0
-10 -4 -10 -10z"/>
<path d="M4505 2700 c3 -5 15 -10 26 -10 11 0 17 5 14 10 -3 6 -15 10 -26 10
-11 0 -17 -4 -14 -10z"/>
<path d="M4575 2700 c-18 -8 -17 -9 8 -9 16 -1 26 3 22 9 -3 6 -7 10 -8 9 -1
0 -11 -4 -22 -9z"/>
<path d="M4013 2690 c-25 -10 -31 -19 -10 -16 16 2 55 25 42 25 -5 0 -20 -4
-32 -9z"/>
<path d="M4176 2674 c-11 -8 -16 -14 -10 -14 13 0 39 18 34 24 -3 2 -14 -2
-24 -10z"/>
<path d="M4220 2660 c0 -5 7 -10 15 -10 8 0 15 5 15 10 0 6 -7 10 -15 10 -8 0
-15 -4 -15 -10z"/>
<path d="M3380 2550 c0 -5 5 -10 10 -10 6 0 10 5 10 10 0 6 -4 10 -10 10 -5 0
-10 -4 -10 -10z"/>
<path d="M2310 3696 c0 -2 7 -7 16 -10 8 -3 12 -2 9 4 -6 10 -25 14 -25 6z"/>
<path d="M5260 3485 c0 -5 5 -17 10 -25 5 -8 10 -10 10 -5 0 6 -5 17 -10 25
-5 8 -10 11 -10 5z"/>
</g>
</svg>
